<?xml version="1.0" encoding="utf-8"?>
<svg viewBox="0 0 500 500" xmlns="http://www.w3.org/2000/svg">
  <g transform="matrix(0.478493, 0, 0, 0.478868, 47.873894, 101.37616)" style="">
    <path d="M 320.704 84.744 C 320.704 37.934 359.159 0 406.608 0 C 454.037 0 492.469 37.934 492.469 84.744 C 492.469 131.576 454.035 169.444 406.608 169.444 C 359.159 169.444 320.704 131.576 320.704 84.744 Z M 697.917 294.813 C 689.432 280.49 670.79 275.629 656.282 284.006 C 628.428 300 587.303 310.894 563.095 288.823 C 553.926 280.49 545.985 269.096 537.596 257.031 C 516.242 226.41 490.808 198.025 454.143 186.002 C 440.744 181.619 426.68 179.101 412.576 178.147 L 434.744 407.77 L 402.756 444.77 L 366.19 407.77 L 393.967 177.887 C 385.395 178.191 376.857 179.059 368.425 180.578 C 364.541 181.273 360.71 182.119 356.912 183.117 C 341.601 187.154 325.771 191.537 311.904 199.371 C 285.743 214.215 269.868 236.936 255.849 257.032 C 247.451 269.098 239.486 280.491 230.339 288.824 C 206.131 310.894 164.996 300.044 137.153 284.007 C 122.634 275.609 104.015 280.491 95.519 294.814 C 87.023 309.115 91.938 327.496 106.446 335.851 C 132.205 350.717 163.911 361.567 195.27 361.567 C 222.332 361.567 249.155 353.494 271.67 332.943 C 285.808 320.052 296.073 305.339 305.99 291.124 C 313.845 279.883 321.073 269.835 329.135 261.893 C 327.79 287.696 324.632 349.935 321.854 413.737 C 321.594 415.148 321.214 416.538 321.106 418.011 L 298.58 732.01 C 258.346 721.007 232.532 703.212 232.532 682.683 C 232.532 666.537 248.667 651.52 278.051 640.236 L 279.386 621.964 C 185.886 637.893 125.816 670.64 125.816 705.991 C 125.816 756.968 249.872 800.002 396.714 800.002 C 543.568 800.002 667.634 756.968 667.634 705.991 C 667.634 671.854 611.384 640.061 523.266 623.613 L 523.266 645.032 C 545.662 655.666 557.577 668.555 557.577 682.683 C 557.577 700.13 538.546 716.06 506.004 727.324 C 500.59 646.224 486.442 434.594 486.039 432.901 C 484.248 384.549 478.736 313.912 475.459 274.675 C 479.409 279.84 483.348 285.265 487.449 291.125 C 497.367 305.339 507.641 320.053 521.769 332.944 C 544.294 353.495 571.108 361.568 598.179 361.568 C 629.516 361.568 661.234 350.717 686.97 335.852 C 701.508 327.496 706.414 309.115 697.917 294.813 Z M 395.084 743.707 C 388.921 743.707 382.866 743.555 376.898 743.316 L 394.681 495.311 C 397.612 494.531 400.508 493.791 403.014 493.791 C 405.954 493.791 408.777 494.312 411.629 494.66 L 427.894 742.338 C 417.025 743.186 406.077 743.707 395.084 743.707 Z"/>
  </g>
  <g transform="matrix(0.339961, 0, 0, 0.365302, 78.852966, 214.65921)" style=""/>
  <g transform="matrix(0.339961, 0, 0, 0.365302, 78.852966, 214.65921)" style=""/>
  <g transform="matrix(0.339961, 0, 0, 0.365302, 78.852966, 214.65921)" style=""/>
  <g transform="matrix(0.339961, 0, 0, 0.365302, 78.852966, 214.65921)" style=""/>
  <g transform="matrix(0.339961, 0, 0, 0.365302, 78.852966, 214.65921)" style=""/>
  <g transform="matrix(0.339961, 0, 0, 0.365302, 78.852966, 214.65921)" style=""/>
  <g transform="matrix(0.339961, 0, 0, 0.365302, 78.852966, 214.65921)" style=""/>
  <g transform="matrix(0.339961, 0, 0, 0.365302, 78.852966, 214.65921)" style=""/>
  <g transform="matrix(0.339961, 0, 0, 0.365302, 78.852966, 214.65921)" style=""/>
  <g transform="matrix(0.339961, 0, 0, 0.365302, 78.852966, 214.65921)" style=""/>
  <g transform="matrix(0.339961, 0, 0, 0.365302, 78.852966, 214.65921)" style=""/>
  <g transform="matrix(0.339961, 0, 0, 0.365302, 78.852966, 214.65921)" style=""/>
  <g transform="matrix(0.339961, 0, 0, 0.365302, 78.852966, 214.65921)" style=""/>
  <g transform="matrix(0.339961, 0, 0, 0.365302, 78.852966, 214.65921)" style=""/>
  <g id="XMLID_92_" transform="matrix(0.363143, 0, 0, 0.348797, 15.2982, 114.034309)" style="">
    <path id="XMLID_93_" d="M165,0C74.019,0,0,74.019,0,165s74.019,165,165,165s165-74.019,165-165S255.981,0,165,0z M165,300 c-74.439,0-135-60.561-135-135S90.561,30,165,30s135,60.561,135,135S239.439,300,165,300z" style="fill: rgb(28, 121, 2);"/>
    <path id="XMLID_104_" d="M205.306,205.305c-22.226,22.224-58.386,22.225-80.611,0.001c-5.857-5.858-15.355-5.858-21.213,0 c-5.858,5.858-5.858,15.355,0,21.213c16.963,16.963,39.236,25.441,61.519,25.441c22.276,0,44.56-8.482,61.519-25.441 c5.858-5.857,5.858-15.355,0-21.213C220.661,199.447,211.163,199.448,205.306,205.305z" style="fill: rgb(28, 121, 2);"/>
    <path id="XMLID_105_" d="M115.14,147.14c3.73-3.72,5.86-8.88,5.86-14.14c0-5.26-2.13-10.42-5.86-14.14 c-3.72-3.72-8.88-5.86-14.14-5.86c-5.271,0-10.42,2.14-14.141,5.86C83.13,122.58,81,127.74,81,133c0,5.26,2.13,10.42,5.859,14.14 C90.58,150.87,95.74,153,101,153S111.42,150.87,115.14,147.14z" style="fill: rgb(28, 121, 2);"/>
    <path id="XMLID_106_" d="M229,113c-5.26,0-10.42,2.14-14.141,5.86C211.14,122.58,209,127.73,209,133c0,5.27,2.14,10.42,5.859,14.14 C218.58,150.87,223.74,153,229,153s10.42-2.13,14.14-5.86c3.72-3.72,5.86-8.87,5.86-14.14c0-5.26-2.141-10.42-5.86-14.14 C239.42,115.14,234.26,113,229,113z" style="fill: rgb(28, 121, 2);"/>
  </g>
  <path d="M 417.394 111.815 C 382.312 111.815 353.889 138.481 353.889 171.393 C 353.889 204.304 382.312 230.97 417.394 230.97 C 452.475 230.97 480.899 204.304 480.899 171.393 C 480.899 138.481 452.475 111.815 417.394 111.815 Z M 417.394 219.439 C 389.149 219.439 366.18 197.89 366.18 171.393 C 366.18 144.895 389.149 123.347 417.394 123.347 C 445.639 123.347 468.609 144.895 468.609 171.393 C 468.609 197.89 445.639 219.439 417.394 219.439 Z M 408.739 167.092 C 410.736 165.218 410.736 162.168 408.739 160.294 L 404.155 156.018 L 408.739 151.718 C 410.736 149.843 410.736 146.793 408.739 144.919 C 406.742 143.046 403.49 143.046 401.492 144.919 L 396.909 149.219 L 392.351 144.943 C 390.353 143.07 387.101 143.07 385.104 144.943 C 383.107 146.818 383.107 149.868 385.104 151.742 L 389.687 156.042 L 385.104 160.342 C 383.107 162.216 383.107 165.267 385.104 167.141 C 387.101 169.015 390.353 169.015 392.351 167.141 L 396.909 162.864 L 401.467 167.141 C 403.49 168.991 406.717 168.991 408.739 167.092 Z M 449.711 144.943 C 447.713 143.07 444.461 143.07 442.463 144.943 L 437.88 149.219 L 433.322 144.943 C 431.325 143.07 428.073 143.07 426.075 144.943 C 424.078 146.818 424.078 149.868 426.075 151.742 L 430.659 156.042 L 426.075 160.342 C 424.078 162.216 424.078 165.267 426.075 167.141 C 428.073 169.015 431.325 169.015 433.322 167.141 L 437.88 162.864 L 442.438 167.141 C 444.435 169.015 447.687 169.015 449.685 167.141 C 451.682 165.267 451.682 162.216 449.685 160.342 L 445.126 156.018 L 449.711 151.718 C 451.682 149.843 451.682 146.818 449.711 144.943 Z M 417.394 175.236 C 408.355 175.236 401.006 182.132 401.006 190.612 C 401.006 199.092 408.355 205.986 417.394 205.986 C 426.434 205.986 433.783 199.092 433.783 190.612 C 433.783 182.132 426.434 175.236 417.394 175.236 Z" style="fill: rgb(164, 0, 0);"/>
  <g transform="matrix(0.495418, 0, 0, 0.466095, 124.745445, -25.126225)" style="">
    <path d="M281.563,216.99c6.66-3.912,11.143-11.146,11.143-19.412c0-5.758-2.177-11.016-5.747-15c3.571-3.984,5.747-9.242,5.747-15 s-2.177-11.016-5.747-15c3.571-3.984,5.747-9.242,5.747-15c0-12.407-10.093-22.5-22.5-22.5H257.5V7.5c0-4.142-3.358-7.5-7.5-7.5 s-7.5,3.358-7.5,7.5v107.579h-15V7.5c0-4.142-3.358-7.5-7.5-7.5s-7.5,3.358-7.5,7.5v107.579h-12.708 c-12.407,0-22.5,10.093-22.5,22.5c0,5.758,2.177,11.016,5.747,15c-3.571,3.984-5.747,9.242-5.747,15s2.177,11.016,5.747,15 c-3.571,3.984-5.747,9.242-5.747,15c0,8.266,4.483,15.5,11.143,19.412c-27.912,47.338-58.789,108.545-58.789,147.656 C129.646,422.739,176.908,470,235,470s105.354-47.261,105.354-105.354C340.354,325.537,309.476,264.33,281.563,216.99z M235,455 c-49.821,0-90.354-40.532-90.354-90.354c0-29.091,21.078-80.342,59.401-144.568h17.548 c-20.776,34.383-61.949,107.249-61.949,144.568C159.646,406.197,193.45,440,235,440s75.354-33.803,75.354-75.354 c0-32.933-32.231-93.614-51.444-126.854c-2.073-3.586-6.659-4.813-10.247-2.74c-3.591,2.099-4.807,6.67-2.74,10.247 c31.414,54.349,49.431,97.849,49.431,119.347C295.354,397.925,268.279,425,235,425s-60.354-27.075-60.354-60.354 c0-24.986,24.667-80.172,64.529-144.568h0.457h26.319c38.324,64.227,59.403,115.479,59.403,144.568 C325.354,414.468,284.821,455,235,455z M192.292,137.579c0-4.136,3.364-7.5,7.5-7.5h70.414c4.136,0,7.5,3.364,7.5,7.5 s-3.364,7.5-7.5,7.5h-30.414c-4.142,0-7.5,3.358-7.5,7.5c0.001,4.143,3.358,7.5,7.5,7.5h30.414c4.136,0,7.5,3.364,7.5,7.5 s-3.364,7.5-7.5,7.5h-70.414c-4.136,0-7.5-3.364-7.5-7.5s3.364-7.5,7.5-7.5h10c4.142,0,7.499-3.357,7.5-7.499 c0-4.144-3.358-7.501-7.5-7.501h-10C195.657,145.079,192.292,141.714,192.292,137.579z M199.792,190.079h70.414 c4.136,0,7.5,3.364,7.5,7.5s-3.364,7.5-7.5,7.5h-70.414c-4.136,0-7.5-3.364-7.5-7.5S195.657,190.079,199.792,190.079z"/>
  </g>
  <g transform="matrix(0.495418, 0, 0, 0.466095, 227.313217, 151.098007)" style=""/>
  <g transform="matrix(0.495418, 0, 0, 0.466095, 227.313217, 151.098007)" style=""/>
  <g transform="matrix(0.495418, 0, 0, 0.466095, 227.313217, 151.098007)" style=""/>
  <g transform="matrix(0.495418, 0, 0, 0.466095, 227.313217, 151.098007)" style=""/>
  <g transform="matrix(0.495418, 0, 0, 0.466095, 227.313217, 151.098007)" style=""/>
  <g transform="matrix(0.495418, 0, 0, 0.466095, 227.313217, 151.098007)" style=""/>
  <g transform="matrix(0.495418, 0, 0, 0.466095, 227.313217, 151.098007)" style=""/>
  <g transform="matrix(0.495418, 0, 0, 0.466095, 227.313217, 151.098007)" style=""/>
  <g transform="matrix(0.495418, 0, 0, 0.466095, 227.313217, 151.098007)" style=""/>
  <g transform="matrix(0.495418, 0, 0, 0.466095, 227.313217, 151.098007)" style=""/>
  <g transform="matrix(0.495418, 0, 0, 0.466095, 227.313217, 151.098007)" style=""/>
  <g transform="matrix(0.495418, 0, 0, 0.466095, 227.313217, 151.098007)" style=""/>
  <g transform="matrix(0.495418, 0, 0, 0.466095, 227.313217, 151.098007)" style=""/>
  <g transform="matrix(0.495418, 0, 0, 0.466095, 227.313217, 151.098007)" style=""/>
  <g transform="matrix(0.495418, 0, 0, 0.466095, 227.313217, 151.098007)" style=""/>
  <g transform="matrix(0.022467, 0, 0, 0.02525, 230.856628, 283.650238)" style="">
    <path fill="#ED1F34" d="M76.419,659.064v-1c0-6.563-5.34-11.903-11.903-11.903H24.807V152.508l489.999,493.653H116.129 c-6.563,0-11.903,5.34-11.903,11.903v1H76.419z"/>
    <path fill="#ED1F34" d="M116.129,645.161h396.275L25.807,154.935v490.226h38.709c7.126,0,12.903,5.775,12.903,12.903h25.806 C103.226,650.937,109.003,645.161,116.129,645.161z"/>
    <polygon fill="#ED1F34" points="285.194,153.839 775.193,153.839 775.193,647.492 &#9;"/>
    <polygon fill="#ED1F34" points="774.193,645.065 774.193,154.839 287.596,154.839 &#9;"/>
    <polygon fill="#FFFFFF" points="552.723,645.161 66.027,154.839 25.807,154.839 25.807,154.935 512.404,645.161 &#9;"/>
    <polygon fill="#FFFFFF" points="247.276,154.839 733.975,645.161 774.193,645.161 774.193,645.065 287.596,154.839 &#9;"/>
    <polygon fill="#333333" points="588.668,646.161 99.983,153.839 211.333,153.839 700.015,646.161 &#9;"/>
    <polygon fill="#333333" points="697.613,645.161 210.916,154.839 102.385,154.839 589.084,645.161 &#9;"/>
    <path d="M787.097,129.032H12.903C5.777,129.032,0,134.808,0,141.936v516.129c0,7.128,5.777,12.903,12.903,12.903h51.613 c7.126,0,12.903-5.775,12.903-12.903s-5.777-12.903-12.903-12.903H25.807V154.935v-0.096h40.22l486.696,490.322h-40.318H116.129 c-7.126,0-12.903,5.775-12.903,12.903s5.777,12.903,12.903,12.903h670.968c7.128,0,12.903-5.775,12.903-12.903V141.936 C800,134.808,794.225,129.032,787.097,129.032z M774.193,645.065v0.096h-40.219L247.276,154.839h40.318h486.6V645.065z M210.916,154.839l486.697,490.322H589.084L102.385,154.839H210.916z"/>
  </g>
</svg>