<?xml version="1.0" standalone="no"?>
<!DOCTYPE svg PUBLIC "-//W3C//DTD SVG 20010904//EN"
 "http://www.w3.org/TR/2001/REC-SVG-20010904/DTD/svg10.dtd">
<svg version="1.0" xmlns="http://www.w3.org/2000/svg"
 width="664.000000pt" height="1280.000000pt" viewBox="0 0 664.000000 1280.000000"
 preserveAspectRatio="xMidYMid meet">
<metadata>
Created by potrace 1.15, written by Peter Selinger 2001-2017
</metadata>
<g transform="translate(0.000000,1280.000000) scale(0.100000,-0.100000)"
fill="#000000" stroke="none">
<path d="M2547 12786 c-8 -8 -21 -63 -31 -122 -9 -59 -17 -109 -19 -110 -2 -2
-59 -11 -127 -20 -99 -13 -174 -15 -365 -11 -259 6 -361 17 -718 74 -207 33
-252 37 -417 37 -162 0 -209 -4 -370 -32 -102 -17 -223 -34 -268 -38 -45 -4
-82 -10 -82 -13 0 -4 -34 -387 -75 -851 -41 -464 -73 -846 -70 -848 2 -2 70
21 152 51 377 140 575 173 768 131 214 -47 312 -65 425 -79 174 -22 533 -34
730 -25 91 4 166 6 167 6 1 -1 -43 -291 -98 -645 -83 -535 -103 -646 -118
-660 -11 -9 -33 -61 -51 -116 -36 -113 -60 -159 -120 -231 -81 -98 -77 -146
24 -252 l59 -62 -27 -181 c-29 -189 -27 -209 14 -209 30 0 37 21 60 170 12 80
23 146 25 148 2 2 21 -23 44 -54 25 -34 50 -86 62 -128 171 -585 375 -1188
488 -1440 l28 -62 164 -52 c205 -65 384 -114 754 -207 l290 -72 7 -34 c5 -19
11 -151 15 -294 5 -248 -5 -572 -27 -850 -60 -739 -73 -972 -75 -1315 -3 -379
-8 -559 -31 -1120 -26 -659 -51 -1052 -95 -1505 -35 -363 -64 -534 -132 -770
-17 -61 -42 -80 -175 -131 -165 -63 -171 -84 -50 -170 45 -33 82 -63 82 -68 1
-5 -54 -22 -121 -37 -67 -16 -139 -35 -160 -44 -66 -28 -22 -35 197 -34 113 0
209 0 214 0 5 -1 3 -8 -4 -16 -17 -20 -40 -22 402 29 364 43 723 77 791 75 21
0 -44 -27 -178 -73 -233 -81 -292 -104 -364 -141 -56 -28 -68 -42 -52 -58 15
-15 248 -11 480 8 307 25 346 28 341 22 -3 -3 -48 -12 -100 -21 -112 -20 -283
-62 -312 -77 -13 -7 -17 -14 -10 -21 6 -6 47 -4 118 7 60 8 183 22 274 29 106
9 141 14 99 15 l-66 1 52 55 c29 30 51 55 49 55 -3 0 4 10 16 22 15 17 41 25
108 34 l87 13 -80 -5 c-72 -5 -417 -37 -522 -49 -63 -7 -60 9 5 35 46 18 435
153 617 215 22 7 63 17 90 21 28 4 45 9 39 11 -6 2 -37 0 -70 -5 -50 -8 -55
-8 -39 4 10 8 22 14 27 14 4 0 8 7 8 15 0 13 22 20 95 28 17 2 -40 4 -125 5
-142 2 -407 -11 -505 -23 l-40 -6 30 18 c17 9 59 27 95 39 60 21 62 23 30 24
l-35 1 65 58 64 59 -159 4 c-182 6 -288 29 -521 114 -99 35 -132 44 -144 35
-42 -30 -90 -51 -90 -39 0 7 13 103 30 213 41 279 85 637 114 923 29 278 29
275 -40 707 -79 502 -97 633 -119 867 -6 59 -4 71 14 94 92 117 150 723 138
1424 -11 572 -57 1071 -136 1454 l-27 132 141 33 c77 18 244 54 370 81 383 80
588 140 889 258 l148 58 63 175 c34 96 93 253 130 349 91 240 260 700 329 901
46 134 62 169 81 177 15 7 29 28 40 64 25 74 47 116 94 176 23 28 41 58 41 67
0 8 16 77 36 153 41 156 42 217 4 257 -12 13 -39 26 -59 30 -84 14 -339 -85
-414 -161 -95 -96 -106 -209 -35 -354 30 -61 120 -165 162 -188 18 -9 19 -13
7 -53 -43 -145 -201 -580 -424 -1171 -58 -153 -108 -291 -112 -307 -3 -16 -12
-34 -18 -39 -14 -12 -234 -97 -362 -140 -199 -68 -308 -96 -720 -183 -132 -28
-279 -61 -326 -73 l-86 -22 -52 155 c-50 153 -71 238 -71 290 0 23 9 30 64 54
150 66 287 243 366 472 176 510 81 1230 -221 1683 -74 110 -217 249 -304 294
-108 56 -173 71 -280 66 -79 -4 -102 -10 -166 -41 -171 -83 -299 -258 -382
-523 -126 -401 -85 -952 103 -1384 142 -328 378 -564 602 -602 l66 -12 5 -65
c3 -36 21 -115 40 -176 19 -60 38 -124 41 -142 l7 -32 -288 74 c-355 90 -595
156 -734 201 l-106 34 -51 128 c-112 280 -251 688 -382 1122 -75 250 -95 351
-87 452 3 45 -7 127 -35 293 l-40 230 91 585 c118 761 366 2356 393 2532 17
111 18 141 8 153 -16 19 -34 19 -53 1z m1169 -2990 c130 -64 266 -213 357
-391 20 -38 35 -71 33 -72 -2 -2 -16 3 -32 12 -76 39 -164 25 -224 -35 -98
-98 -91 -294 13 -408 59 -63 107 -85 178 -80 78 6 133 42 164 111 27 58 29 57
49 -65 41 -235 45 -487 11 -684 -80 -463 -330 -731 -608 -650 -160 47 -330
221 -446 460 -132 269 -195 561 -193 891 2 467 157 830 399 931 48 20 72 24
139 22 70 -3 90 -8 160 -42z m334 -555 c92 -66 114 -232 38 -296 -59 -50 -133
-19 -181 75 -76 147 26 305 143 221z m-21 -3433 c19 -277 26 -907 12 -1163
-12 -218 -31 -414 -51 -530 -16 -86 -18 -91 -39 -92 -17 -1 -21 8 -28 55 -14
101 -8 672 11 907 42 541 66 883 66 942 0 34 4 63 8 63 5 0 14 -82 21 -182z
m-98 -2018 c14 0 18 -14 23 -72 16 -174 55 -462 96 -708 79 -472 88 -572 66
-790 -48 -473 -145 -1182 -170 -1241 -8 -18 45 -79 68 -79 7 0 50 -19 97 -41
46 -23 109 -52 139 -64 l55 -23 -45 -6 c-260 -36 -243 -36 -270 -11 -32 29
-113 69 -263 130 -90 37 -119 53 -123 69 -3 12 6 60 19 106 90 309 162 1104
207 2260 5 146 13 324 16 396 l6 131 31 -28 c17 -16 39 -29 48 -29z m607
-3076 c-3 -3 -57 -12 -119 -20 -63 -8 -170 -23 -238 -34 -68 -11 -180 -25
-250 -30 -69 -6 -139 -13 -156 -15 -18 -3 -26 -2 -20 4 6 5 98 21 205 35 107
15 258 35 335 45 140 19 253 26 243 15z m339 -430 c-3 -3 -12 -4 -19 -1 -8 3
-5 6 6 6 11 1 17 -2 13 -5z"/>
<path d="M3370 9224 c-85 -37 -130 -118 -130 -234 0 -62 5 -86 28 -135 81
-171 255 -217 364 -97 44 49 62 100 62 177 0 84 -27 155 -82 216 -74 83 -160
109 -242 73z m137 -109 c13 -9 35 -34 50 -57 22 -33 28 -55 31 -112 3 -62 1
-76 -20 -106 -44 -65 -107 -65 -168 -1 -128 134 -36 369 107 276z"/>
<path d="M3671 8254 c-138 -49 -208 -145 -218 -301 -5 -75 -4 -85 21 -127 32
-55 71 -85 162 -128 64 -30 76 -32 179 -33 95 0 116 3 151 22 56 30 109 94
125 150 24 89 9 245 -31 310 -26 43 -92 90 -153 108 -65 19 -179 18 -236 -1z
m232 -103 c61 -26 83 -59 97 -143 17 -99 2 -165 -46 -207 -19 -17 -38 -31 -42
-31 -4 -1 -26 -5 -49 -9 -60 -12 -148 5 -216 41 -80 43 -97 67 -97 137 0 101
58 189 145 219 51 18 158 14 208 -7z"/>
<path d="M5453 763 c15 -2 37 -2 50 0 12 2 0 4 -28 4 -27 0 -38 -2 -22 -4z"/>
<path d="M5458 713 c7 -3 16 -2 19 1 4 3 -2 6 -13 5 -11 0 -14 -3 -6 -6z"/>
<path d="M5403 703 c9 -2 23 -2 30 0 6 3 -1 5 -18 5 -16 0 -22 -2 -12 -5z"/>
<path d="M5073 293 c9 -2 25 -2 35 0 9 3 1 5 -18 5 -19 0 -27 -2 -17 -5z"/>
<path d="M5059 173 c-13 -16 -12 -17 4 -4 9 7 17 15 17 17 0 8 -8 3 -21 -13z"/>
</g>
</svg>
